<svg xmlns="http://www.w3.org/2000/svg" viewBox="0 0 1600 760" role="img" aria-labelledby="title desc">
  <title id="title">Meal planning notes</title>
  <desc id="desc">A recreated view of meal planning notes with dinners, lunches, and a shared edit history.</desc>
  <rect width="1600" height="760" fill="#f5f4f2"/>
  <rect x="0" y="0" width="1185" height="760" fill="#fbfbfa"/>
  <rect x="1185" y="0" width="415" height="760" fill="#f7f6f4"/>
  <line x1="1185" y1="0" x2="1185" y2="760" stroke="#d6d4cf" stroke-width="2"/>

  <text x="40" y="88" fill="#2a2a2a" font-family="Arial, Helvetica, sans-serif" font-size="44" font-weight="700">Dinners</text>

  <text x="40" y="150" fill="#4a4a4a" font-family="Arial, Helvetica, sans-serif" font-size="28">11 apr</text>

  <circle cx="58" cy="190" r="16" fill="none" stroke="#bfc3c7" stroke-width="3"/>
  <text x="82" y="198" fill="#4d4d4d" font-family="Arial, Helvetica, sans-serif" font-size="28">Pasta (Feta, Spinach Orzo)</text>

  <circle cx="58" cy="228" r="16" fill="none" stroke="#84b76d" stroke-width="3"/>
  <text x="82" y="236" fill="#4d4d4d" font-family="Arial, Helvetica, sans-serif" font-size="28">Fish Curry (Prawn Moelle)</text>

  <circle cx="58" cy="266" r="16" fill="none" stroke="#bfc3c7" stroke-width="3"/>
  <text x="82" y="274" fill="#4d4d4d" font-family="Arial, Helvetica, sans-serif" font-size="28">Mexican Mushroom Tacos</text>

  <circle cx="58" cy="304" r="16" fill="none" stroke="#bfc3c7" stroke-width="3"/>
  <text x="82" y="312" fill="#4d4d4d" font-family="Arial, Helvetica, sans-serif" font-size="28">Asparagus risotto</text>

  <circle cx="58" cy="342" r="16" fill="none" stroke="#84b76d" stroke-width="3"/>
  <text x="82" y="350" fill="#4d4d4d" font-family="Arial, Helvetica, sans-serif" font-size="28">Spring minestrone</text>

  <text x="40" y="430" fill="#4a4a4a" font-family="Arial, Helvetica, sans-serif" font-size="28">5 April</text>
  <text x="40" y="463" fill="#4a4a4a" font-family="Arial, Helvetica, sans-serif" font-size="28">Dinner</text>

  <g fill="#9bc449">
    <circle cx="58" cy="504" r="18"/>
    <circle cx="58" cy="542" r="18"/>
  </g>
  <g fill="#ffb114">
    <circle cx="58" cy="580" r="18"/>
    <circle cx="58" cy="618" r="18"/>
    <circle cx="58" cy="656" r="18"/>
    <circle cx="58" cy="694" r="18"/>
    <circle cx="58" cy="732" r="18"/>
  </g>
  <g fill="#ffffff" font-family="Arial, Helvetica, sans-serif" font-size="26" font-weight="700" text-anchor="middle">
    <text x="58" y="513">✓</text>
    <text x="58" y="551">✓</text>
    <text x="58" y="589">✓</text>
    <text x="58" y="627">✓</text>
    <text x="58" y="665">✓</text>
    <text x="58" y="703">✓</text>
    <text x="58" y="741">✓</text>
  </g>
  <g fill="#4d4d4d" font-family="Arial, Helvetica, sans-serif" font-size="27">
    <text x="84" y="513">Fish tacos</text>
    <text x="84" y="551">Asparagus tart Pasta</text>
    <text x="84" y="589">Spanakopita</text>
    <text x="84" y="627">Artechoke Hearts</text>
    <text x="84" y="665">Tuna Pak Choi</text>
    <text x="84" y="703">Prawn Dhanzak</text>
    <text x="40" y="735">Lunches</text>
  </g>

  <text x="1210" y="64" fill="#2a2a2a" font-family="Arial, Helvetica, sans-serif" font-size="20" font-weight="700">TODAY</text>
  <text x="1478" y="64" fill="#7a7a7a" font-family="Arial, Helvetica, sans-serif" font-size="16" text-anchor="end">LATEST UPDATES</text>

  <g>
    <rect x="1210" y="98" width="6" height="46" rx="3" fill="#57bf3f"/>
    <circle cx="1250" cy="120" r="18" fill="#a8afbc"/>
    <text x="1250" y="127" fill="#ffffff" font-family="Arial, Helvetica, sans-serif" font-size="18" font-weight="700" text-anchor="middle">LH</text>
    <text x="1282" y="128" fill="#333333" font-family="Arial, Helvetica, sans-serif" font-size="24" font-weight="700">You made edits</text>
    <text x="1554" y="128" fill="#6f6f6f" font-family="Arial, Helvetica, sans-serif" font-size="18" text-anchor="end">23:32</text>
    <line x1="1225" y1="160" x2="1560" y2="160" stroke="#dedbd6" stroke-width="2"/>
  </g>

  <text x="1210" y="210" fill="#2a2a2a" font-family="Arial, Helvetica, sans-serif" font-size="20" font-weight="700">YESTERDAY</text>

  <g>
    <rect x="1210" y="244" width="6" height="46" rx="3" fill="#57bf3f"/>
    <circle cx="1250" cy="266" r="18" fill="#a8afbc"/>
    <text x="1250" y="273" fill="#ffffff" font-family="Arial, Helvetica, sans-serif" font-size="18" font-weight="700" text-anchor="middle">LH</text>
    <text x="1282" y="274" fill="#333333" font-family="Arial, Helvetica, sans-serif" font-size="24" font-weight="700">You made edits</text>
    <text x="1554" y="274" fill="#6f6f6f" font-family="Arial, Helvetica, sans-serif" font-size="18" text-anchor="end">19:31</text>
    <line x1="1225" y1="306" x2="1560" y2="306" stroke="#dedbd6" stroke-width="2"/>
  </g>

  <g>
    <rect x="1210" y="336" width="6" height="46" rx="3" fill="#57bf3f"/>
    <circle cx="1250" cy="358" r="18" fill="#a8afbc"/>
    <text x="1250" y="365" fill="#ffffff" font-family="Arial, Helvetica, sans-serif" font-size="18" font-weight="700" text-anchor="middle">LH</text>
    <text x="1282" y="366" fill="#333333" font-family="Arial, Helvetica, sans-serif" font-size="24" font-weight="700">You made edits</text>
    <text x="1554" y="366" fill="#6f6f6f" font-family="Arial, Helvetica, sans-serif" font-size="18" text-anchor="end">11:51</text>
    <line x1="1225" y1="398" x2="1560" y2="398" stroke="#dedbd6" stroke-width="2"/>
  </g>

  <text x="1210" y="454" fill="#2a2a2a" font-family="Arial, Helvetica, sans-serif" font-size="20" font-weight="700">10 APR</text>
  <g>
    <rect x="1210" y="486" width="6" height="46" rx="3" fill="#7a58bf"/>
    <circle cx="1250" cy="508" r="18" fill="#d2b284"/>
    <text x="1282" y="516" fill="#333333" font-family="Arial, Helvetica, sans-serif" font-size="24" font-weight="700">Natalie made edits</text>
    <line x1="1225" y1="544" x2="1560" y2="544" stroke="#dedbd6" stroke-width="2"/>
  </g>

  <text x="1210" y="604" fill="#2a2a2a" font-family="Arial, Helvetica, sans-serif" font-size="20" font-weight="700">7 APR</text>
  <g>
    <rect x="1210" y="636" width="6" height="46" rx="3" fill="#57bf3f"/>
    <circle cx="1250" cy="658" r="18" fill="#a8afbc"/>
    <text x="1250" y="665" fill="#ffffff" font-family="Arial, Helvetica, sans-serif" font-size="18" font-weight="700" text-anchor="middle">LH</text>
    <text x="1282" y="666" fill="#333333" font-family="Arial, Helvetica, sans-serif" font-size="24" font-weight="700">You made edits</text>
  </g>
</svg>
